<svg id="visual" viewBox="0 0 900 200" width="900" height="200" xmlns="http://www.w3.org/2000/svg" xmlns:xlink="http://www.w3.org/1999/xlink" version="1.1"><rect x="0" y="0" width="900" height="200" fill="#9edbdc"></rect><path d="M0 48L21.5 48.2C43 48.3 86 48.7 128.8 48.3C171.7 48 214.3 47 257.2 47.8C300 48.7 343 51.3 385.8 51C428.7 50.7 471.3 47.3 514.2 45C557 42.7 600 41.3 642.8 41.5C685.7 41.7 728.3 43.3 771.2 43.2C814 43 857 41 878.5 40L900 39L900 201L878.5 201C857 201 814 201 771.2 201C728.3 201 685.7 201 642.8 201C600 201 557 201 514.2 201C471.3 201 428.7 201 385.8 201C343 201 300 201 257.2 201C214.3 201 171.7 201 128.8 201C86 201 43 201 21.5 201L0 201Z" fill="#6461b9"></path><path d="M0 68L21.5 67C43 66 86 64 128.8 65.3C171.7 66.7 214.3 71.3 257.2 72.7C300 74 343 72 385.8 69.5C428.7 67 471.3 64 514.2 63.7C557 63.3 600 65.7 642.8 66C685.7 66.3 728.3 64.7 771.2 65.5C814 66.3 857 69.7 878.5 71.3L900 73L900 201L878.5 201C857 201 814 201 771.2 201C728.3 201 685.7 201 642.8 201C600 201 557 201 514.2 201C471.3 201 428.7 201 385.8 201C343 201 300 201 257.2 201C214.3 201 171.7 201 128.8 201C86 201 43 201 21.5 201L0 201Z" fill="#936ab8"></path><path d="M0 88L21.5 88C43 88 86 88 128.8 87.8C171.7 87.7 214.3 87.3 257.2 88C300 88.7 343 90.3 385.8 90.7C428.7 91 471.3 90 514.2 90.8C557 91.7 600 94.3 642.8 94.7C685.7 95 728.3 93 771.2 92C814 91 857 91 878.5 91L900 91L900 201L878.5 201C857 201 814 201 771.2 201C728.3 201 685.7 201 642.8 201C600 201 557 201 514.2 201C471.3 201 428.7 201 385.8 201C343 201 300 201 257.2 201C214.3 201 171.7 201 128.8 201C86 201 43 201 21.5 201L0 201Z" fill="#b576b6"></path><path d="M0 110L21.5 110.3C43 110.7 86 111.3 128.8 111C171.7 110.7 214.3 109.3 257.2 110C300 110.7 343 113.3 385.8 113.2C428.7 113 471.3 110 514.2 108.8C557 107.7 600 108.3 642.8 109C685.7 109.7 728.3 110.3 771.2 111.2C814 112 857 113 878.5 113.5L900 114L900 201L878.5 201C857 201 814 201 771.2 201C728.3 201 685.7 201 642.8 201C600 201 557 201 514.2 201C471.3 201 428.7 201 385.8 201C343 201 300 201 257.2 201C214.3 201 171.7 201 128.8 201C86 201 43 201 21.5 201L0 201Z" fill="#d086b5"></path><path d="M0 135L21.5 134.8C43 134.7 86 134.3 128.8 134.7C171.7 135 214.3 136 257.2 135.5C300 135 343 133 385.8 132.8C428.7 132.7 471.3 134.3 514.2 133.7C557 133 600 130 642.8 128.7C685.7 127.3 728.3 127.7 771.2 129.5C814 131.3 857 134.7 878.5 136.3L900 138L900 201L878.5 201C857 201 814 201 771.2 201C728.3 201 685.7 201 642.8 201C600 201 557 201 514.2 201C471.3 201 428.7 201 385.8 201C343 201 300 201 257.2 201C214.3 201 171.7 201 128.8 201C86 201 43 201 21.5 201L0 201Z" fill="#e499b6"></path><path d="M0 155L21.5 154.3C43 153.7 86 152.3 128.8 151.8C171.7 151.3 214.3 151.7 257.2 151.7C300 151.7 343 151.3 385.8 151.7C428.7 152 471.3 153 514.2 153.8C557 154.7 600 155.3 642.8 155.5C685.7 155.7 728.3 155.3 771.2 154.7C814 154 857 153 878.5 152.5L900 152L900 201L878.5 201C857 201 814 201 771.2 201C728.3 201 685.7 201 642.8 201C600 201 557 201 514.2 201C471.3 201 428.7 201 385.8 201C343 201 300 201 257.2 201C214.3 201 171.7 201 128.8 201C86 201 43 201 21.5 201L0 201Z" fill="#f4aebb"></path><path d="M0 172L21.5 172.2C43 172.3 86 172.7 128.8 173.2C171.7 173.7 214.3 174.3 257.2 173.8C300 173.3 343 171.7 385.8 171.3C428.7 171 471.3 172 514.2 173.2C557 174.3 600 175.7 642.8 175C685.7 174.3 728.3 171.7 771.2 171C814 170.3 857 171.7 878.5 172.3L900 173L900 201L878.5 201C857 201 814 201 771.2 201C728.3 201 685.7 201 642.8 201C600 201 557 201 514.2 201C471.3 201 428.7 201 385.8 201C343 201 300 201 257.2 201C214.3 201 171.7 201 128.8 201C86 201 43 201 21.5 201L0 201Z" fill="#ffc5c4"></path></svg>