<svg id="visual" viewBox="0 0 960 150" width="960" height="150" xmlns="http://www.w3.org/2000/svg" xmlns:xlink="http://www.w3.org/1999/xlink" version="1.1"><path d="M0 86L12.3 85.5C24.7 85 49.3 84 74 86.2C98.7 88.3 123.3 93.7 148 97.5C172.7 101.3 197.3 103.7 221.8 102.8C246.3 102 270.7 98 295.2 101.8C319.7 105.7 344.3 117.3 369 102.2C393.7 87 418.3 45 443 43.7C467.7 42.3 492.3 81.7 517 98.3C541.7 115 566.3 109 591 108.2C615.7 107.3 640.3 111.7 664.8 101.2C689.3 90.7 713.7 65.3 738.2 52.5C762.7 39.7 787.3 39.3 812 42.8C836.7 46.3 861.3 53.7 886 49.5C910.7 45.3 935.3 29.7 947.7 21.8L960 14L960 0L947.7 0C935.3 0 910.7 0 886 0C861.3 0 836.7 0 812 0C787.3 0 762.7 0 738.2 0C713.7 0 689.3 0 664.8 0C640.3 0 615.7 0 591 0C566.3 0 541.7 0 517 0C492.3 0 467.7 0 443 0C418.3 0 393.7 0 369 0C344.3 0 319.7 0 295.2 0C270.7 0 246.3 0 221.8 0C197.3 0 172.7 0 148 0C123.3 0 98.7 0 74 0C49.3 0 24.7 0 12.3 0L0 0Z" fill="#070b1e"></path><path d="M0 38L12.3 52C24.7 66 49.3 94 74 101C98.7 108 123.3 94 148 74.5C172.7 55 197.3 30 221.8 32.7C246.3 35.3 270.7 65.7 295.2 74.2C319.7 82.7 344.3 69.3 369 68.8C393.7 68.3 418.3 80.7 443 76.3C467.7 72 492.3 51 517 47.7C541.7 44.3 566.3 58.7 591 69.2C615.7 79.7 640.3 86.3 664.8 87C689.3 87.7 713.7 82.3 738.2 81.3C762.7 80.3 787.3 83.7 812 71.5C836.7 59.3 861.3 31.7 886 19.2C910.7 6.7 935.3 9.3 947.7 10.7L960 12L960 0L947.7 0C935.3 0 910.7 0 886 0C861.3 0 836.7 0 812 0C787.3 0 762.7 0 738.2 0C713.7 0 689.3 0 664.8 0C640.3 0 615.7 0 591 0C566.3 0 541.7 0 517 0C492.3 0 467.7 0 443 0C418.3 0 393.7 0 369 0C344.3 0 319.7 0 295.2 0C270.7 0 246.3 0 221.8 0C197.3 0 172.7 0 148 0C123.3 0 98.7 0 74 0C49.3 0 24.7 0 12.3 0L0 0Z" fill="#242f3e"></path><path d="M0 98L12.3 95C24.7 92 49.3 86 74 81.8C98.7 77.7 123.3 75.3 148 68.7C172.7 62 197.3 51 221.8 43.8C246.3 36.7 270.7 33.3 295.2 32.7C319.7 32 344.3 34 369 44.8C393.7 55.7 418.3 75.3 443 77.5C467.7 79.7 492.3 64.3 517 53C541.7 41.7 566.3 34.3 591 31.7C615.7 29 640.3 31 664.8 42.2C689.3 53.3 713.7 73.7 738.2 75.8C762.7 78 787.3 62 812 53.5C836.7 45 861.3 44 886 51C910.7 58 935.3 73 947.7 80.5L960 88L960 0L947.7 0C935.3 0 910.7 0 886 0C861.3 0 836.7 0 812 0C787.3 0 762.7 0 738.2 0C713.7 0 689.3 0 664.8 0C640.3 0 615.7 0 591 0C566.3 0 541.7 0 517 0C492.3 0 467.7 0 443 0C418.3 0 393.7 0 369 0C344.3 0 319.7 0 295.2 0C270.7 0 246.3 0 221.8 0C197.3 0 172.7 0 148 0C123.3 0 98.7 0 74 0C49.3 0 24.7 0 12.3 0L0 0Z" fill="#435260"></path><path d="M0 18L12.3 18.7C24.7 19.3 49.3 20.7 74 27.3C98.7 34 123.3 46 148 44C172.7 42 197.3 26 221.8 20.7C246.3 15.3 270.7 20.7 295.2 24.5C319.7 28.3 344.3 30.7 369 36C393.7 41.3 418.3 49.7 443 47C467.7 44.3 492.3 30.7 517 36.3C541.7 42 566.3 67 591 71.3C615.7 75.7 640.3 59.3 664.8 55.5C689.3 51.7 713.7 60.3 738.2 56.7C762.7 53 787.3 37 812 28.7C836.7 20.3 861.3 19.7 886 20.3C910.7 21 935.3 23 947.7 24L960 25L960 0L947.7 0C935.3 0 910.7 0 886 0C861.3 0 836.7 0 812 0C787.3 0 762.7 0 738.2 0C713.7 0 689.3 0 664.8 0C640.3 0 615.7 0 591 0C566.3 0 541.7 0 517 0C492.3 0 467.7 0 443 0C418.3 0 393.7 0 369 0C344.3 0 319.7 0 295.2 0C270.7 0 246.3 0 221.8 0C197.3 0 172.7 0 148 0C123.3 0 98.7 0 74 0C49.3 0 24.7 0 12.3 0L0 0Z" fill="#677983"></path><path d="M0 22L12.3 21.5C24.7 21 49.3 20 74 27.5C98.7 35 123.3 51 148 56.2C172.7 61.3 197.3 55.7 221.8 49.3C246.3 43 270.7 36 295.2 32C319.7 28 344.3 27 369 27.2C393.7 27.3 418.3 28.7 443 34.3C467.7 40 492.3 50 517 48.5C541.7 47 566.3 34 591 26.7C615.7 19.3 640.3 17.7 664.8 22.5C689.3 27.3 713.7 38.7 738.2 41.3C762.7 44 787.3 38 812 37.3C836.7 36.7 861.3 41.3 886 42.8C910.7 44.3 935.3 42.7 947.7 41.8L960 41L960 0L947.7 0C935.3 0 910.7 0 886 0C861.3 0 836.7 0 812 0C787.3 0 762.7 0 738.2 0C713.7 0 689.3 0 664.8 0C640.3 0 615.7 0 591 0C566.3 0 541.7 0 517 0C492.3 0 467.7 0 443 0C418.3 0 393.7 0 369 0C344.3 0 319.7 0 295.2 0C270.7 0 246.3 0 221.8 0C197.3 0 172.7 0 148 0C123.3 0 98.7 0 74 0C49.3 0 24.7 0 12.3 0L0 0Z" fill="#8fa1a8"></path><path d="M0 11L12.3 15C24.7 19 49.3 27 74 32.7C98.7 38.3 123.3 41.7 148 38C172.7 34.3 197.3 23.7 221.8 21C246.3 18.3 270.7 23.7 295.2 29.7C319.7 35.7 344.3 42.3 369 39.8C393.7 37.3 418.3 25.7 443 21C467.7 16.3 492.3 18.7 517 24.8C541.7 31 566.3 41 591 38.3C615.7 35.7 640.3 20.3 664.8 18.3C689.3 16.3 713.7 27.7 738.2 29C762.7 30.3 787.3 21.7 812 16.7C836.7 11.7 861.3 10.3 886 8.3C910.7 6.3 935.3 3.7 947.7 2.3L960 1L960 0L947.7 0C935.3 0 910.7 0 886 0C861.3 0 836.7 0 812 0C787.3 0 762.7 0 738.2 0C713.7 0 689.3 0 664.8 0C640.3 0 615.7 0 591 0C566.3 0 541.7 0 517 0C492.3 0 467.7 0 443 0C418.3 0 393.7 0 369 0C344.3 0 319.7 0 295.2 0C270.7 0 246.3 0 221.8 0C197.3 0 172.7 0 148 0C123.3 0 98.7 0 74 0C49.3 0 24.7 0 12.3 0L0 0Z" fill="#b9cbce"></path><path d="M0 2L12.3 1.8C24.7 1.7 49.3 1.3 74 2.5C98.7 3.7 123.3 6.3 148 12C172.7 17.7 197.3 26.3 221.8 30.2C246.3 34 270.7 33 295.2 32.8C319.7 32.7 344.3 33.3 369 31C393.7 28.7 418.3 23.3 443 18.8C467.7 14.3 492.3 10.7 517 12.8C541.7 15 566.3 23 591 22.3C615.7 21.7 640.3 12.3 664.8 12.2C689.3 12 713.7 21 738.2 23.8C762.7 26.7 787.3 23.3 812 22.2C836.7 21 861.3 22 886 24.7C910.7 27.3 935.3 31.7 947.7 33.8L960 36L960 0L947.7 0C935.3 0 910.7 0 886 0C861.3 0 836.7 0 812 0C787.3 0 762.7 0 738.2 0C713.7 0 689.3 0 664.8 0C640.3 0 615.7 0 591 0C566.3 0 541.7 0 517 0C492.3 0 467.7 0 443 0C418.3 0 393.7 0 369 0C344.3 0 319.7 0 295.2 0C270.7 0 246.3 0 221.8 0C197.3 0 172.7 0 148 0C123.3 0 98.7 0 74 0C49.3 0 24.7 0 12.3 0L0 0Z" fill="#e7f6f6"></path></svg>