<svg id="visual" viewBox="0 0 960 150" width="960" height="150" xmlns="http://www.w3.org/2000/svg" xmlns:xlink="http://www.w3.org/1999/xlink" version="1.1"><rect x="0" y="0" width="960" height="150" fill="#ce9d9d"></rect><path d="M0 11L80 11C160 11 320 11 480 11C640 11 800 11 880 11L960 11L960 151L880 151C800 151 640 151 480 151C320 151 160 151 80 151L0 151Z" fill="#ce9d9d"></path><path d="M0 22L80 22C160 22 320 22 480 22C640 22 800 22 880 22L960 22L960 151L880 151C800 151 640 151 480 151C320 151 160 151 80 151L0 151Z" fill="#d3a6a6"></path><path d="M0 34L80 34C160 34 320 34 480 34C640 34 800 34 880 34L960 34L960 151L880 151C800 151 640 151 480 151C320 151 160 151 80 151L0 151Z" fill="#d8aeae"></path><path d="M0 45L80 45C160 45 320 45 480 45C640 45 800 45 880 45L960 45L960 151L880 151C800 151 640 151 480 151C320 151 160 151 80 151L0 151Z" fill="#dcb7b7"></path><path d="M0 57L80 57C160 57 320 57 480 57C640 57 800 57 880 57L960 57L960 151L880 151C800 151 640 151 480 151C320 151 160 151 80 151L0 151Z" fill="#e1c0c0"></path><path d="M0 68L80 68C160 68 320 68 480 68C640 68 800 68 880 68L960 68L960 151L880 151C800 151 640 151 480 151C320 151 160 151 80 151L0 151Z" fill="#e6c9c9"></path><path d="M0 80L80 80C160 80 320 80 480 80C640 80 800 80 880 80L960 80L960 151L880 151C800 151 640 151 480 151C320 151 160 151 80 151L0 151Z" fill="#ead1d1"></path><path d="M0 91L80 91C160 91 320 91 480 91C640 91 800 91 880 91L960 91L960 151L880 151C800 151 640 151 480 151C320 151 160 151 80 151L0 151Z" fill="#eedada"></path><path d="M0 103L80 103C160 103 320 103 480 103C640 103 800 103 880 103L960 103L960 151L880 151C800 151 640 151 480 151C320 151 160 151 80 151L0 151Z" fill="#f3e4e3"></path><path d="M0 114L80 114C160 114 320 114 480 114C640 114 800 114 880 114L960 114L960 151L880 151C800 151 640 151 480 151C320 151 160 151 80 151L0 151Z" fill="#f7eded"></path><path d="M0 126L80 126C160 126 320 126 480 126C640 126 800 126 880 126L960 126L960 151L880 151C800 151 640 151 480 151C320 151 160 151 80 151L0 151Z" fill="#fbf6f6"></path><path d="M0 137L80 137C160 137 320 137 480 137C640 137 800 137 880 137L960 137L960 151L880 151C800 151 640 151 480 151C320 151 160 151 80 151L0 151Z" fill="#ffffff"></path></svg>