<svg id="visual" viewBox="0 0 960 150" width="960" height="150" xmlns="http://www.w3.org/2000/svg" xmlns:xlink="http://www.w3.org/1999/xlink" version="1.1"><rect x="0" y="0" width="960" height="150" fill="#ce9d9d"></rect><path d="M0 89L8.8 88.8C17.7 88.7 35.3 88.3 53.2 87.8C71 87.3 89 86.7 106.8 83.3C124.7 80 142.3 74 160 75C177.7 76 195.3 84 213.2 90.2C231 96.3 249 100.7 266.8 95.8C284.7 91 302.3 77 320 78C337.7 79 355.3 95 373.2 100.3C391 105.7 409 100.3 426.8 101.5C444.7 102.7 462.3 110.3 480 110.2C497.7 110 515.3 102 533.2 96.3C551 90.7 569 87.3 586.8 89.2C604.7 91 622.3 98 640 101C657.7 104 675.3 103 693.2 100.2C711 97.3 729 92.7 746.8 94.7C764.7 96.7 782.3 105.3 800 106.2C817.7 107 835.3 100 853.2 95.5C871 91 889 89 906.8 91.3C924.7 93.7 942.3 100.3 951.2 103.7L960 107L960 0L951.2 0C942.3 0 924.7 0 906.8 0C889 0 871 0 853.2 0C835.3 0 817.7 0 800 0C782.3 0 764.7 0 746.8 0C729 0 711 0 693.2 0C675.3 0 657.7 0 640 0C622.3 0 604.7 0 586.8 0C569 0 551 0 533.2 0C515.3 0 497.7 0 480 0C462.3 0 444.7 0 426.8 0C409 0 391 0 373.2 0C355.3 0 337.7 0 320 0C302.3 0 284.7 0 266.8 0C249 0 231 0 213.2 0C195.3 0 177.7 0 160 0C142.3 0 124.7 0 106.8 0C89 0 71 0 53.2 0C35.3 0 17.7 0 8.8 0L0 0Z" fill="#ce9d9d"></path><path d="M0 80L8.8 80C17.7 80 35.3 80 53.2 75C71 70 89 60 106.8 60C124.7 60 142.3 70 160 70.8C177.7 71.7 195.3 63.3 213.2 59.2C231 55 249 55 266.8 59.5C284.7 64 302.3 73 320 73.7C337.7 74.3 355.3 66.7 373.2 63.7C391 60.7 409 62.3 426.8 61.7C444.7 61 462.3 58 480 60.3C497.7 62.7 515.3 70.3 533.2 69.3C551 68.3 569 58.7 586.8 56.5C604.7 54.3 622.3 59.7 640 64.3C657.7 69 675.3 73 693.2 77.8C711 82.7 729 88.3 746.8 84C764.7 79.7 782.3 65.3 800 57.5C817.7 49.7 835.3 48.3 853.2 50.3C871 52.3 889 57.7 906.8 63.2C924.7 68.7 942.3 74.3 951.2 77.2L960 80L960 0L951.2 0C942.3 0 924.7 0 906.8 0C889 0 871 0 853.2 0C835.3 0 817.7 0 800 0C782.3 0 764.7 0 746.8 0C729 0 711 0 693.2 0C675.3 0 657.7 0 640 0C622.3 0 604.7 0 586.8 0C569 0 551 0 533.2 0C515.3 0 497.7 0 480 0C462.3 0 444.7 0 426.8 0C409 0 391 0 373.2 0C355.3 0 337.7 0 320 0C302.3 0 284.7 0 266.8 0C249 0 231 0 213.2 0C195.3 0 177.7 0 160 0C142.3 0 124.7 0 106.8 0C89 0 71 0 53.2 0C35.3 0 17.7 0 8.8 0L0 0Z" fill="#d2b19e"></path><path d="M0 73L8.8 67.7C17.7 62.3 35.3 51.7 53.2 51.8C71 52 89 63 106.8 68.7C124.7 74.3 142.3 74.7 160 70.7C177.7 66.7 195.3 58.3 213.2 58C231 57.7 249 65.3 266.8 65.3C284.7 65.3 302.3 57.7 320 58.2C337.7 58.7 355.3 67.3 373.2 69.8C391 72.3 409 68.7 426.8 65.5C444.7 62.3 462.3 59.7 480 55.5C497.7 51.3 515.3 45.7 533.2 42.5C551 39.3 569 38.7 586.8 40.3C604.7 42 622.3 46 640 49.7C657.7 53.3 675.3 56.7 693.2 57.5C711 58.3 729 56.7 746.8 57.2C764.7 57.7 782.3 60.3 800 61.8C817.7 63.3 835.3 63.7 853.2 60.5C871 57.3 889 50.7 906.8 48.3C924.7 46 942.3 48 951.2 49L960 50L960 0L951.2 0C942.3 0 924.7 0 906.8 0C889 0 871 0 853.2 0C835.3 0 817.7 0 800 0C782.3 0 764.7 0 746.8 0C729 0 711 0 693.2 0C675.3 0 657.7 0 640 0C622.3 0 604.7 0 586.8 0C569 0 551 0 533.2 0C515.3 0 497.7 0 480 0C462.3 0 444.7 0 426.8 0C409 0 391 0 373.2 0C355.3 0 337.7 0 320 0C302.3 0 284.7 0 266.8 0C249 0 231 0 213.2 0C195.3 0 177.7 0 160 0C142.3 0 124.7 0 106.8 0C89 0 71 0 53.2 0C35.3 0 17.7 0 8.8 0L0 0Z" fill="#cfc5ad"></path><path d="M0 53L8.8 53.3C17.7 53.7 35.3 54.3 53.2 54.5C71 54.7 89 54.3 106.8 53C124.7 51.7 142.3 49.3 160 45C177.7 40.7 195.3 34.3 213.2 33.5C231 32.7 249 37.3 266.8 42.3C284.7 47.3 302.3 52.7 320 51C337.7 49.3 355.3 40.7 373.2 42C391 43.3 409 54.7 426.8 55.7C444.7 56.7 462.3 47.3 480 45.5C497.7 43.7 515.3 49.3 533.2 49.7C551 50 569 45 586.8 42.2C604.7 39.3 622.3 38.7 640 38.5C657.7 38.3 675.3 38.7 693.2 40.7C711 42.7 729 46.3 746.8 50.5C764.7 54.7 782.3 59.3 800 61.8C817.7 64.3 835.3 64.7 853.2 59.3C871 54 889 43 906.8 41.7C924.7 40.3 942.3 48.7 951.2 52.8L960 57L960 0L951.2 0C942.3 0 924.7 0 906.8 0C889 0 871 0 853.2 0C835.3 0 817.7 0 800 0C782.3 0 764.7 0 746.8 0C729 0 711 0 693.2 0C675.3 0 657.7 0 640 0C622.3 0 604.7 0 586.8 0C569 0 551 0 533.2 0C515.3 0 497.7 0 480 0C462.3 0 444.7 0 426.8 0C409 0 391 0 373.2 0C355.3 0 337.7 0 320 0C302.3 0 284.7 0 266.8 0C249 0 231 0 213.2 0C195.3 0 177.7 0 160 0C142.3 0 124.7 0 106.8 0C89 0 71 0 53.2 0C35.3 0 17.7 0 8.8 0L0 0Z" fill="#ced8c5"></path><path d="M0 28L8.8 26.8C17.7 25.7 35.3 23.3 53.2 26.3C71 29.3 89 37.7 106.8 36.7C124.7 35.7 142.3 25.3 160 20.2C177.7 15 195.3 15 213.2 19.7C231 24.3 249 33.7 266.8 36.3C284.7 39 302.3 35 320 30.3C337.7 25.7 355.3 20.3 373.2 18.2C391 16 409 17 426.8 19.5C444.7 22 462.3 26 480 28.5C497.7 31 515.3 32 533.2 32.2C551 32.3 569 31.7 586.8 33.8C604.7 36 622.3 41 640 38C657.7 35 675.3 24 693.2 23.3C711 22.7 729 32.3 746.8 32.2C764.7 32 782.3 22 800 18.5C817.7 15 835.3 18 853.2 18.8C871 19.7 889 18.3 906.8 20C924.7 21.7 942.3 26.3 951.2 28.7L960 31L960 0L951.2 0C942.3 0 924.7 0 906.8 0C889 0 871 0 853.2 0C835.3 0 817.7 0 800 0C782.3 0 764.7 0 746.8 0C729 0 711 0 693.2 0C675.3 0 657.7 0 640 0C622.3 0 604.7 0 586.8 0C569 0 551 0 533.2 0C515.3 0 497.7 0 480 0C462.3 0 444.7 0 426.8 0C409 0 391 0 373.2 0C355.3 0 337.7 0 320 0C302.3 0 284.7 0 266.8 0C249 0 231 0 213.2 0C195.3 0 177.7 0 160 0C142.3 0 124.7 0 106.8 0C89 0 71 0 53.2 0C35.3 0 17.7 0 8.8 0L0 0Z" fill="#d6e8df"></path><path d="M0 23L8.8 19.8C17.7 16.7 35.3 10.3 53.2 9C71 7.7 89 11.3 106.8 15.5C124.7 19.7 142.3 24.3 160 25.3C177.7 26.3 195.3 23.7 213.2 23C231 22.3 249 23.7 266.8 25.7C284.7 27.7 302.3 30.3 320 28.8C337.7 27.3 355.3 21.7 373.2 19.3C391 17 409 18 426.8 20.5C444.7 23 462.3 27 480 28.7C497.7 30.3 515.3 29.7 533.2 29C551 28.3 569 27.7 586.8 25C604.7 22.3 622.3 17.7 640 15.8C657.7 14 675.3 15 693.2 14.7C711 14.3 729 12.7 746.8 10.3C764.7 8 782.3 5 800 3.2C817.7 1.3 835.3 0.7 853.2 2.2C871 3.7 889 7.3 906.8 7.5C924.7 7.7 942.3 4.3 951.2 2.7L960 1L960 0L951.2 0C942.3 0 924.7 0 906.8 0C889 0 871 0 853.2 0C835.3 0 817.7 0 800 0C782.3 0 764.7 0 746.8 0C729 0 711 0 693.2 0C675.3 0 657.7 0 640 0C622.3 0 604.7 0 586.8 0C569 0 551 0 533.2 0C515.3 0 497.7 0 480 0C462.3 0 444.7 0 426.8 0C409 0 391 0 373.2 0C355.3 0 337.7 0 320 0C302.3 0 284.7 0 266.8 0C249 0 231 0 213.2 0C195.3 0 177.7 0 160 0C142.3 0 124.7 0 106.8 0C89 0 71 0 53.2 0C35.3 0 17.7 0 8.8 0L0 0Z" fill="#e7f6f6"></path></svg>