<svg id="visual" viewBox="0 0 960 150" width="960" height="150" xmlns="http://www.w3.org/2000/svg" xmlns:xlink="http://www.w3.org/1999/xlink" version="1.1"><rect x="0" y="0" width="960" height="150" fill="#FFFFFF"></rect><path d="M0 137L7 137C14 137 28 137 41.8 137C55.7 137 69.3 137 83.2 137C97 137 111 137 125 137C139 137 153 137 167 137C181 137 195 137 208.8 137C222.7 137 236.3 137 250.2 137C264 137 278 137 292 137C306 137 320 137 334 137C348 137 362 137 375.8 137C389.7 137 403.3 137 417.2 137C431 137 445 137 459 137C473 137 487 137 501 137C515 137 529 137 542.8 137C556.7 137 570.3 137 584.2 137C598 137 612 137 626 137C640 137 654 137 668 137C682 137 696 137 709.8 137C723.7 137 737.3 137 751.2 137C765 137 779 137 793 137C807 137 821 137 835 137C849 137 863 137 876.8 137C890.7 137 904.3 137 918.2 137C932 137 946 137 953 137L960 137L960 0L953 0C946 0 932 0 918.2 0C904.3 0 890.7 0 876.8 0C863 0 849 0 835 0C821 0 807 0 793 0C779 0 765 0 751.2 0C737.3 0 723.7 0 709.8 0C696 0 682 0 668 0C654 0 640 0 626 0C612 0 598 0 584.2 0C570.3 0 556.7 0 542.8 0C529 0 515 0 501 0C487 0 473 0 459 0C445 0 431 0 417.2 0C403.3 0 389.7 0 375.8 0C362 0 348 0 334 0C320 0 306 0 292 0C278 0 264 0 250.2 0C236.3 0 222.7 0 208.8 0C195 0 181 0 167 0C153 0 139 0 125 0C111 0 97 0 83.2 0C69.3 0 55.7 0 41.8 0C28 0 14 0 7 0L0 0Z" fill="#ffffff"></path><path d="M0 126L7 126C14 126 28 126 41.8 126C55.7 126 69.3 126 83.2 126C97 126 111 126 125 126C139 126 153 126 167 126C181 126 195 126 208.8 126C222.7 126 236.3 126 250.2 126C264 126 278 126 292 126C306 126 320 126 334 126C348 126 362 126 375.8 126C389.7 126 403.3 126 417.2 126C431 126 445 126 459 126C473 126 487 126 501 126C515 126 529 126 542.8 126C556.7 126 570.3 126 584.2 126C598 126 612 126 626 126C640 126 654 126 668 126C682 126 696 126 709.8 126C723.7 126 737.3 126 751.2 126C765 126 779 126 793 126C807 126 821 126 835 126C849 126 863 126 876.8 126C890.7 126 904.3 126 918.2 126C932 126 946 126 953 126L960 126L960 0L953 0C946 0 932 0 918.2 0C904.3 0 890.7 0 876.8 0C863 0 849 0 835 0C821 0 807 0 793 0C779 0 765 0 751.2 0C737.3 0 723.7 0 709.8 0C696 0 682 0 668 0C654 0 640 0 626 0C612 0 598 0 584.2 0C570.3 0 556.7 0 542.8 0C529 0 515 0 501 0C487 0 473 0 459 0C445 0 431 0 417.2 0C403.3 0 389.7 0 375.8 0C362 0 348 0 334 0C320 0 306 0 292 0C278 0 264 0 250.2 0C236.3 0 222.7 0 208.8 0C195 0 181 0 167 0C153 0 139 0 125 0C111 0 97 0 83.2 0C69.3 0 55.7 0 41.8 0C28 0 14 0 7 0L0 0Z" fill="#f7f7fa"></path><path d="M0 114L7 114C14 114 28 114 41.8 114C55.7 114 69.3 114 83.2 114C97 114 111 114 125 114C139 114 153 114 167 114C181 114 195 114 208.8 114C222.7 114 236.3 114 250.2 114C264 114 278 114 292 114C306 114 320 114 334 114C348 114 362 114 375.8 114C389.7 114 403.3 114 417.2 114C431 114 445 114 459 114C473 114 487 114 501 114C515 114 529 114 542.8 114C556.7 114 570.3 114 584.2 114C598 114 612 114 626 114C640 114 654 114 668 114C682 114 696 114 709.8 114C723.7 114 737.3 114 751.2 114C765 114 779 114 793 114C807 114 821 114 835 114C849 114 863 114 876.8 114C890.7 114 904.3 114 918.2 114C932 114 946 114 953 114L960 114L960 0L953 0C946 0 932 0 918.2 0C904.3 0 890.7 0 876.8 0C863 0 849 0 835 0C821 0 807 0 793 0C779 0 765 0 751.2 0C737.3 0 723.7 0 709.8 0C696 0 682 0 668 0C654 0 640 0 626 0C612 0 598 0 584.2 0C570.3 0 556.7 0 542.8 0C529 0 515 0 501 0C487 0 473 0 459 0C445 0 431 0 417.2 0C403.3 0 389.7 0 375.8 0C362 0 348 0 334 0C320 0 306 0 292 0C278 0 264 0 250.2 0C236.3 0 222.7 0 208.8 0C195 0 181 0 167 0C153 0 139 0 125 0C111 0 97 0 83.2 0C69.3 0 55.7 0 41.8 0C28 0 14 0 7 0L0 0Z" fill="#eff0f6"></path><path d="M0 103L7 103C14 103 28 103 41.8 103C55.7 103 69.3 103 83.2 103C97 103 111 103 125 103C139 103 153 103 167 103C181 103 195 103 208.8 103C222.7 103 236.3 103 250.2 103C264 103 278 103 292 103C306 103 320 103 334 103C348 103 362 103 375.8 103C389.7 103 403.3 103 417.2 103C431 103 445 103 459 103C473 103 487 103 501 103C515 103 529 103 542.8 103C556.7 103 570.3 103 584.2 103C598 103 612 103 626 103C640 103 654 103 668 103C682 103 696 103 709.8 103C723.7 103 737.3 103 751.2 103C765 103 779 103 793 103C807 103 821 103 835 103C849 103 863 103 876.8 103C890.7 103 904.3 103 918.2 103C932 103 946 103 953 103L960 103L960 0L953 0C946 0 932 0 918.2 0C904.3 0 890.7 0 876.8 0C863 0 849 0 835 0C821 0 807 0 793 0C779 0 765 0 751.2 0C737.3 0 723.7 0 709.8 0C696 0 682 0 668 0C654 0 640 0 626 0C612 0 598 0 584.2 0C570.3 0 556.7 0 542.8 0C529 0 515 0 501 0C487 0 473 0 459 0C445 0 431 0 417.2 0C403.3 0 389.7 0 375.8 0C362 0 348 0 334 0C320 0 306 0 292 0C278 0 264 0 250.2 0C236.3 0 222.7 0 208.8 0C195 0 181 0 167 0C153 0 139 0 125 0C111 0 97 0 83.2 0C69.3 0 55.7 0 41.8 0C28 0 14 0 7 0L0 0Z" fill="#e7e8f1"></path><path d="M0 91L7 91C14 91 28 91 41.8 91C55.7 91 69.3 91 83.2 91C97 91 111 91 125 91C139 91 153 91 167 91C181 91 195 91 208.8 91C222.7 91 236.3 91 250.2 91C264 91 278 91 292 91C306 91 320 91 334 91C348 91 362 91 375.8 91C389.7 91 403.3 91 417.2 91C431 91 445 91 459 91C473 91 487 91 501 91C515 91 529 91 542.8 91C556.7 91 570.3 91 584.2 91C598 91 612 91 626 91C640 91 654 91 668 91C682 91 696 91 709.8 91C723.7 91 737.3 91 751.2 91C765 91 779 91 793 91C807 91 821 91 835 91C849 91 863 91 876.8 91C890.7 91 904.3 91 918.2 91C932 91 946 91 953 91L960 91L960 0L953 0C946 0 932 0 918.2 0C904.3 0 890.7 0 876.8 0C863 0 849 0 835 0C821 0 807 0 793 0C779 0 765 0 751.2 0C737.3 0 723.7 0 709.8 0C696 0 682 0 668 0C654 0 640 0 626 0C612 0 598 0 584.2 0C570.3 0 556.7 0 542.8 0C529 0 515 0 501 0C487 0 473 0 459 0C445 0 431 0 417.2 0C403.3 0 389.7 0 375.8 0C362 0 348 0 334 0C320 0 306 0 292 0C278 0 264 0 250.2 0C236.3 0 222.7 0 208.8 0C195 0 181 0 167 0C153 0 139 0 125 0C111 0 97 0 83.2 0C69.3 0 55.7 0 41.8 0C28 0 14 0 7 0L0 0Z" fill="#dfe1ec"></path><path d="M0 80L7 80C14 80 28 80 41.8 80C55.7 80 69.3 80 83.2 80C97 80 111 80 125 80C139 80 153 80 167 80C181 80 195 80 208.8 80C222.7 80 236.3 80 250.2 80C264 80 278 80 292 80C306 80 320 80 334 80C348 80 362 80 375.8 80C389.7 80 403.3 80 417.2 80C431 80 445 80 459 80C473 80 487 80 501 80C515 80 529 80 542.8 80C556.7 80 570.3 80 584.2 80C598 80 612 80 626 80C640 80 654 80 668 80C682 80 696 80 709.8 80C723.7 80 737.3 80 751.2 80C765 80 779 80 793 80C807 80 821 80 835 80C849 80 863 80 876.8 80C890.7 80 904.3 80 918.2 80C932 80 946 80 953 80L960 80L960 0L953 0C946 0 932 0 918.2 0C904.3 0 890.7 0 876.8 0C863 0 849 0 835 0C821 0 807 0 793 0C779 0 765 0 751.2 0C737.3 0 723.7 0 709.8 0C696 0 682 0 668 0C654 0 640 0 626 0C612 0 598 0 584.2 0C570.3 0 556.7 0 542.8 0C529 0 515 0 501 0C487 0 473 0 459 0C445 0 431 0 417.2 0C403.3 0 389.7 0 375.8 0C362 0 348 0 334 0C320 0 306 0 292 0C278 0 264 0 250.2 0C236.3 0 222.7 0 208.8 0C195 0 181 0 167 0C153 0 139 0 125 0C111 0 97 0 83.2 0C69.3 0 55.7 0 41.8 0C28 0 14 0 7 0L0 0Z" fill="#d7dae7"></path><path d="M0 68L7 68C14 68 28 68 41.8 68C55.7 68 69.3 68 83.2 68C97 68 111 68 125 68C139 68 153 68 167 68C181 68 195 68 208.8 68C222.7 68 236.3 68 250.2 68C264 68 278 68 292 68C306 68 320 68 334 68C348 68 362 68 375.8 68C389.7 68 403.3 68 417.2 68C431 68 445 68 459 68C473 68 487 68 501 68C515 68 529 68 542.8 68C556.7 68 570.3 68 584.2 68C598 68 612 68 626 68C640 68 654 68 668 68C682 68 696 68 709.8 68C723.7 68 737.3 68 751.2 68C765 68 779 68 793 68C807 68 821 68 835 68C849 68 863 68 876.8 68C890.7 68 904.3 68 918.2 68C932 68 946 68 953 68L960 68L960 0L953 0C946 0 932 0 918.2 0C904.3 0 890.7 0 876.8 0C863 0 849 0 835 0C821 0 807 0 793 0C779 0 765 0 751.2 0C737.3 0 723.7 0 709.8 0C696 0 682 0 668 0C654 0 640 0 626 0C612 0 598 0 584.2 0C570.3 0 556.7 0 542.8 0C529 0 515 0 501 0C487 0 473 0 459 0C445 0 431 0 417.2 0C403.3 0 389.7 0 375.8 0C362 0 348 0 334 0C320 0 306 0 292 0C278 0 264 0 250.2 0C236.3 0 222.7 0 208.8 0C195 0 181 0 167 0C153 0 139 0 125 0C111 0 97 0 83.2 0C69.3 0 55.7 0 41.8 0C28 0 14 0 7 0L0 0Z" fill="#cfd2e3"></path><path d="M0 57L7 57C14 57 28 57 41.8 57C55.7 57 69.3 57 83.2 57C97 57 111 57 125 57C139 57 153 57 167 57C181 57 195 57 208.8 57C222.7 57 236.3 57 250.2 57C264 57 278 57 292 57C306 57 320 57 334 57C348 57 362 57 375.8 57C389.7 57 403.3 57 417.2 57C431 57 445 57 459 57C473 57 487 57 501 57C515 57 529 57 542.8 57C556.7 57 570.3 57 584.2 57C598 57 612 57 626 57C640 57 654 57 668 57C682 57 696 57 709.8 57C723.7 57 737.3 57 751.2 57C765 57 779 57 793 57C807 57 821 57 835 57C849 57 863 57 876.8 57C890.7 57 904.3 57 918.2 57C932 57 946 57 953 57L960 57L960 0L953 0C946 0 932 0 918.2 0C904.3 0 890.7 0 876.8 0C863 0 849 0 835 0C821 0 807 0 793 0C779 0 765 0 751.2 0C737.3 0 723.7 0 709.8 0C696 0 682 0 668 0C654 0 640 0 626 0C612 0 598 0 584.2 0C570.3 0 556.7 0 542.8 0C529 0 515 0 501 0C487 0 473 0 459 0C445 0 431 0 417.2 0C403.3 0 389.7 0 375.8 0C362 0 348 0 334 0C320 0 306 0 292 0C278 0 264 0 250.2 0C236.3 0 222.7 0 208.8 0C195 0 181 0 167 0C153 0 139 0 125 0C111 0 97 0 83.2 0C69.3 0 55.7 0 41.8 0C28 0 14 0 7 0L0 0Z" fill="#c7cbde"></path><path d="M0 45L7 45C14 45 28 45 41.8 45C55.7 45 69.3 45 83.2 45C97 45 111 45 125 45C139 45 153 45 167 45C181 45 195 45 208.8 45C222.7 45 236.3 45 250.2 45C264 45 278 45 292 45C306 45 320 45 334 45C348 45 362 45 375.8 45C389.7 45 403.3 45 417.2 45C431 45 445 45 459 45C473 45 487 45 501 45C515 45 529 45 542.8 45C556.7 45 570.3 45 584.2 45C598 45 612 45 626 45C640 45 654 45 668 45C682 45 696 45 709.8 45C723.7 45 737.3 45 751.2 45C765 45 779 45 793 45C807 45 821 45 835 45C849 45 863 45 876.8 45C890.7 45 904.3 45 918.2 45C932 45 946 45 953 45L960 45L960 0L953 0C946 0 932 0 918.2 0C904.3 0 890.7 0 876.8 0C863 0 849 0 835 0C821 0 807 0 793 0C779 0 765 0 751.2 0C737.3 0 723.7 0 709.8 0C696 0 682 0 668 0C654 0 640 0 626 0C612 0 598 0 584.2 0C570.3 0 556.7 0 542.8 0C529 0 515 0 501 0C487 0 473 0 459 0C445 0 431 0 417.2 0C403.3 0 389.7 0 375.8 0C362 0 348 0 334 0C320 0 306 0 292 0C278 0 264 0 250.2 0C236.3 0 222.7 0 208.8 0C195 0 181 0 167 0C153 0 139 0 125 0C111 0 97 0 83.2 0C69.3 0 55.7 0 41.8 0C28 0 14 0 7 0L0 0Z" fill="#bfc4d9"></path><path d="M0 34L7 34C14 34 28 34 41.8 34C55.7 34 69.3 34 83.2 34C97 34 111 34 125 34C139 34 153 34 167 34C181 34 195 34 208.8 34C222.7 34 236.3 34 250.2 34C264 34 278 34 292 34C306 34 320 34 334 34C348 34 362 34 375.8 34C389.7 34 403.3 34 417.2 34C431 34 445 34 459 34C473 34 487 34 501 34C515 34 529 34 542.8 34C556.7 34 570.3 34 584.2 34C598 34 612 34 626 34C640 34 654 34 668 34C682 34 696 34 709.8 34C723.7 34 737.3 34 751.2 34C765 34 779 34 793 34C807 34 821 34 835 34C849 34 863 34 876.8 34C890.7 34 904.3 34 918.2 34C932 34 946 34 953 34L960 34L960 0L953 0C946 0 932 0 918.2 0C904.3 0 890.7 0 876.8 0C863 0 849 0 835 0C821 0 807 0 793 0C779 0 765 0 751.2 0C737.3 0 723.7 0 709.8 0C696 0 682 0 668 0C654 0 640 0 626 0C612 0 598 0 584.2 0C570.3 0 556.7 0 542.8 0C529 0 515 0 501 0C487 0 473 0 459 0C445 0 431 0 417.2 0C403.3 0 389.7 0 375.8 0C362 0 348 0 334 0C320 0 306 0 292 0C278 0 264 0 250.2 0C236.3 0 222.7 0 208.8 0C195 0 181 0 167 0C153 0 139 0 125 0C111 0 97 0 83.2 0C69.3 0 55.7 0 41.8 0C28 0 14 0 7 0L0 0Z" fill="#b7bcd4"></path><path d="M0 22L7 22C14 22 28 22 41.8 22C55.7 22 69.3 22 83.2 22C97 22 111 22 125 22C139 22 153 22 167 22C181 22 195 22 208.8 22C222.7 22 236.3 22 250.2 22C264 22 278 22 292 22C306 22 320 22 334 22C348 22 362 22 375.8 22C389.7 22 403.3 22 417.2 22C431 22 445 22 459 22C473 22 487 22 501 22C515 22 529 22 542.8 22C556.7 22 570.3 22 584.2 22C598 22 612 22 626 22C640 22 654 22 668 22C682 22 696 22 709.8 22C723.7 22 737.3 22 751.2 22C765 22 779 22 793 22C807 22 821 22 835 22C849 22 863 22 876.8 22C890.7 22 904.3 22 918.2 22C932 22 946 22 953 22L960 22L960 0L953 0C946 0 932 0 918.2 0C904.3 0 890.7 0 876.8 0C863 0 849 0 835 0C821 0 807 0 793 0C779 0 765 0 751.2 0C737.3 0 723.7 0 709.8 0C696 0 682 0 668 0C654 0 640 0 626 0C612 0 598 0 584.2 0C570.3 0 556.7 0 542.8 0C529 0 515 0 501 0C487 0 473 0 459 0C445 0 431 0 417.2 0C403.3 0 389.7 0 375.8 0C362 0 348 0 334 0C320 0 306 0 292 0C278 0 264 0 250.2 0C236.3 0 222.7 0 208.8 0C195 0 181 0 167 0C153 0 139 0 125 0C111 0 97 0 83.2 0C69.3 0 55.7 0 41.8 0C28 0 14 0 7 0L0 0Z" fill="#afb5d0"></path><path d="M0 11L7 11C14 11 28 11 41.8 11C55.7 11 69.3 11 83.2 11C97 11 111 11 125 11C139 11 153 11 167 11C181 11 195 11 208.8 11C222.7 11 236.3 11 250.2 11C264 11 278 11 292 11C306 11 320 11 334 11C348 11 362 11 375.8 11C389.7 11 403.3 11 417.2 11C431 11 445 11 459 11C473 11 487 11 501 11C515 11 529 11 542.8 11C556.7 11 570.3 11 584.2 11C598 11 612 11 626 11C640 11 654 11 668 11C682 11 696 11 709.8 11C723.7 11 737.3 11 751.2 11C765 11 779 11 793 11C807 11 821 11 835 11C849 11 863 11 876.8 11C890.7 11 904.3 11 918.2 11C932 11 946 11 953 11L960 11L960 0L953 0C946 0 932 0 918.2 0C904.3 0 890.7 0 876.8 0C863 0 849 0 835 0C821 0 807 0 793 0C779 0 765 0 751.2 0C737.3 0 723.7 0 709.8 0C696 0 682 0 668 0C654 0 640 0 626 0C612 0 598 0 584.2 0C570.3 0 556.7 0 542.8 0C529 0 515 0 501 0C487 0 473 0 459 0C445 0 431 0 417.2 0C403.3 0 389.7 0 375.8 0C362 0 348 0 334 0C320 0 306 0 292 0C278 0 264 0 250.2 0C236.3 0 222.7 0 208.8 0C195 0 181 0 167 0C153 0 139 0 125 0C111 0 97 0 83.2 0C69.3 0 55.7 0 41.8 0C28 0 14 0 7 0L0 0Z" fill="#a7aecb"></path></svg>