<svg id="visual" viewBox="0 0 960 150" width="960" height="150" xmlns="http://www.w3.org/2000/svg" xmlns:xlink="http://www.w3.org/1999/xlink" version="1.1"><rect x="0" y="0" width="960" height="150" fill="#A7AECB"></rect><path d="M0 89L80 95.8C160 102.7 320 116.3 480 118.8C640 121.3 800 112.7 880 108.3L960 104L960 0L880 0C800 0 640 0 480 0C320 0 160 0 80 0L0 0Z" fill="#a7aecb"></path><path d="M0 119L80 114.5C160 110 320 101 480 93C640 85 800 78 880 74.5L960 71L960 0L880 0C800 0 640 0 480 0C320 0 160 0 80 0L0 0Z" fill="#aab9d3"></path><path d="M0 59L80 62C160 65 320 71 480 78C640 85 800 93 880 97L960 101L960 0L880 0C800 0 640 0 480 0C320 0 160 0 80 0L0 0Z" fill="#b0c4d9"></path><path d="M0 50L80 52.5C160 55 320 60 480 61.7C640 63.3 800 61.7 880 60.8L960 60L960 0L880 0C800 0 640 0 480 0C320 0 160 0 80 0L0 0Z" fill="#b7cfde"></path><path d="M0 60L80 58.3C160 56.7 320 53.3 480 51.2C640 49 800 48 880 47.5L960 47L960 0L880 0C800 0 640 0 480 0C320 0 160 0 80 0L0 0Z" fill="#c1d9e4"></path><path d="M0 59L80 54.7C160 50.3 320 41.7 480 36.7C640 31.7 800 30.3 880 29.7L960 29L960 0L880 0C800 0 640 0 480 0C320 0 160 0 80 0L0 0Z" fill="#cde3e9"></path><path d="M0 39L80 36.5C160 34 320 29 480 26.5C640 24 800 24 880 24L960 24L960 0L880 0C800 0 640 0 480 0C320 0 160 0 80 0L0 0Z" fill="#d9edef"></path><path d="M0 24L80 23.8C160 23.7 320 23.3 480 23.7C640 24 800 25 880 25.5L960 26L960 0L880 0C800 0 640 0 480 0C320 0 160 0 80 0L0 0Z" fill="#e7f6f6"></path></svg>