<svg id="visual" viewBox="0 0 960 150" width="960" height="150" xmlns="http://www.w3.org/2000/svg" xmlns:xlink="http://www.w3.org/1999/xlink" version="1.1"><rect x="0" y="0" width="960" height="150" fill="#e7f6f6"></rect><path d="M0 127L32 128.8C64 130.7 128 134.3 192 135.5C256 136.7 320 135.3 384 134.8C448 134.3 512 134.7 576 134.2C640 133.7 704 132.3 768 132.5C832 132.7 896 134.3 928 135.2L960 136L960 0L928 0C896 0 832 0 768 0C704 0 640 0 576 0C512 0 448 0 384 0C320 0 256 0 192 0C128 0 64 0 32 0L0 0Z" fill="#e7f6f6"></path><path d="M0 119L32 120.2C64 121.3 128 123.7 192 122.5C256 121.3 320 116.7 384 115.3C448 114 512 116 576 116C640 116 704 114 768 113.2C832 112.3 896 112.7 928 112.8L960 113L960 0L928 0C896 0 832 0 768 0C704 0 640 0 576 0C512 0 448 0 384 0C320 0 256 0 192 0C128 0 64 0 32 0L0 0Z" fill="#bddfe4"></path><path d="M0 103L32 102.3C64 101.7 128 100.3 192 99.3C256 98.3 320 97.7 384 97.3C448 97 512 97 576 97.7C640 98.3 704 99.7 768 102C832 104.3 896 107.7 928 109.3L960 111L960 0L928 0C896 0 832 0 768 0C704 0 640 0 576 0C512 0 448 0 384 0C320 0 256 0 192 0C128 0 64 0 32 0L0 0Z" fill="#93c7d6"></path><path d="M0 82L32 82.3C64 82.7 128 83.3 192 83.7C256 84 320 84 384 84.5C448 85 512 86 576 87.8C640 89.7 704 92.3 768 92C832 91.7 896 88.3 928 86.7L960 85L960 0L928 0C896 0 832 0 768 0C704 0 640 0 576 0C512 0 448 0 384 0C320 0 256 0 192 0C128 0 64 0 32 0L0 0Z" fill="#6bafcb"></path><path d="M0 79L32 79C64 79 128 79 192 77.7C256 76.3 320 73.7 384 71.8C448 70 512 69 576 69.2C640 69.3 704 70.7 768 72.3C832 74 896 76 928 77L960 78L960 0L928 0C896 0 832 0 768 0C704 0 640 0 576 0C512 0 448 0 384 0C320 0 256 0 192 0C128 0 64 0 32 0L0 0Z" fill="#4496c1"></path><path d="M0 59L32 57.8C64 56.7 128 54.3 192 54C256 53.7 320 55.3 384 55.7C448 56 512 55 576 55.3C640 55.7 704 57.3 768 57.5C832 57.7 896 56.3 928 55.7L960 55L960 0L928 0C896 0 832 0 768 0C704 0 640 0 576 0C512 0 448 0 384 0C320 0 256 0 192 0C128 0 64 0 32 0L0 0Z" fill="#1a7db6"></path><path d="M0 46L32 44.5C64 43 128 40 192 38.8C256 37.7 320 38.3 384 39.8C448 41.3 512 43.7 576 44.3C640 45 704 44 768 44.8C832 45.7 896 48.3 928 49.7L960 51L960 0L928 0C896 0 832 0 768 0C704 0 640 0 576 0C512 0 448 0 384 0C320 0 256 0 192 0C128 0 64 0 32 0L0 0Z" fill="#0063a9"></path><path d="M0 22L32 22C64 22 128 22 192 22.8C256 23.7 320 25.3 384 26.3C448 27.3 512 27.7 576 27.7C640 27.7 704 27.3 768 28.2C832 29 896 31 928 32L960 33L960 0L928 0C896 0 832 0 768 0C704 0 640 0 576 0C512 0 448 0 384 0C320 0 256 0 192 0C128 0 64 0 32 0L0 0Z" fill="#004899"></path><path d="M0 19L32 17.2C64 15.3 128 11.7 192 11.8C256 12 320 16 384 16.7C448 17.3 512 14.7 576 13.5C640 12.3 704 12.7 768 13.8C832 15 896 17 928 18L960 19L960 0L928 0C896 0 832 0 768 0C704 0 640 0 576 0C512 0 448 0 384 0C320 0 256 0 192 0C128 0 64 0 32 0L0 0Z" fill="#0f2c84"></path></svg>