<svg id="visual" viewBox="0 0 900 400" width="900" height="400" xmlns="http://www.w3.org/2000/svg" xmlns:xlink="http://www.w3.org/1999/xlink" version="1.1"><rect x="0" y="0" width="900" height="400" fill="#000000"></rect><path d="M0 158L10 145.7C20 133.3 40 108.7 60 86.2C80 63.7 100 43.3 120 33C140 22.7 160 22.3 180 26.8C200 31.3 220 40.7 240 43.8C260 47 280 44 300 49.3C320 54.7 340 68.3 360 84.8C380 101.3 400 120.7 420 115.8C440 111 460 82 480 79C500 76 520 99 540 106.2C560 113.3 580 104.7 600 87.3C620 70 640 44 660 46.2C680 48.3 700 78.7 720 89.7C740 100.7 760 92.3 780 100C800 107.7 820 131.3 840 136.3C860 141.3 880 127.7 890 120.8L900 114L900 0L890 0C880 0 860 0 840 0C820 0 800 0 780 0C760 0 740 0 720 0C700 0 680 0 660 0C640 0 620 0 600 0C580 0 560 0 540 0C520 0 500 0 480 0C460 0 440 0 420 0C400 0 380 0 360 0C340 0 320 0 300 0C280 0 260 0 240 0C220 0 200 0 180 0C160 0 140 0 120 0C100 0 80 0 60 0C40 0 20 0 10 0L0 0Z" fill="#ffc5c4" stroke-linecap="round" stroke-linejoin="miter"></path></svg>